<?xml version="1.0" encoding="UTF-8" standalone="no"?>
<svg
   xmlns:dc="http://purl.org/dc/elements/1.1/"
   xmlns:cc="http://creativecommons.org/ns#"
   xmlns:rdf="http://www.w3.org/1999/02/22-rdf-syntax-ns#"
   xmlns:svg="http://www.w3.org/2000/svg"
   xmlns="http://www.w3.org/2000/svg"
   style="fill:none"
   version="1.1"
   id="svg2"
   viewBox="0 0 18.857422 17.441406"
   height="17.441406"
   width="18.857422">
  <metadata
     id="metadata16">
    <rdf:RDF>
      <cc:Work
         rdf:about="">
        <dc:format>image/svg+xml</dc:format>
        <dc:type
           rdf:resource="http://purl.org/dc/dcmitype/StillImage" />
        <dc:title></dc:title>
      </cc:Work>
    </rdf:RDF>
  </metadata>
  <defs
     id="defs14" />
  <g
     transform="translate(-0.27929688,-0.92187495)"
     id="g3364">
    <path
       style="color:#000000;font-style:normal;font-variant:normal;font-weight:normal;font-stretch:normal;font-size:medium;line-height:normal;font-family:sans-serif;text-indent:0;text-align:start;text-decoration:none;text-decoration-line:none;text-decoration-style:solid;text-decoration-color:#000000;letter-spacing:normal;word-spacing:normal;text-transform:none;direction:ltr;block-progression:tb;writing-mode:lr-tb;baseline-shift:baseline;text-anchor:start;white-space:normal;clip-rule:nonzero;display:inline;overflow:visible;visibility:visible;opacity:1;isolation:auto;mix-blend-mode:normal;color-interpolation:sRGB;color-interpolation-filters:linearRGB;solid-color:#000000;solid-opacity:1;fill:#000000;fill-opacity:1;fill-rule:nonzero;stroke:none;stroke-width:1.5;stroke-linecap:butt;stroke-linejoin:miter;stroke-miterlimit:4;stroke-dasharray:none;stroke-dashoffset:0;stroke-opacity:1;color-rendering:auto;image-rendering:auto;shape-rendering:auto;text-rendering:auto;enable-background:accumulate"
       d="m 0.27929688,0.921875 0,1.5 c 0.41556302,0 3.03335432,0.013737 3.88476562,0.017578 0.04787,0.3328776 0.1092398,0.7741393 0.1816406,1.2949219 0.147432,1.0604858 0.3352181,2.4300515 0.5195313,3.7832031 0.3686263,2.706303 0.7246093,5.34961 0.7246094,5.34961 l 0.087891,0.65039 10.9257812,0 2.533203,-8.421875 -13.0898436,0 C 5.9751422,4.5736577 5.8931924,3.9692319 5.8320312,3.5292969 5.7581336,2.9977474 5.693352,2.5422363 5.6445312,2.203125 5.5957105,1.8640137 5.5718527,1.687232 5.5429688,1.5429688 L 5.4238281,0.94335938 4.8105469,0.94140625 c 0,0 -4.01049586,-0.0195313 -4.53125002,-0.0195313 z m 5.97265622,5.6738281 10.8671879,0 -1.63086,5.4218749 -8.4999998,0 C 6.9166818,11.486441 6.6755775,9.6932383 6.3515625,7.3144531 6.3165391,7.0573259 6.2869078,6.8517491 6.2519531,6.5957031 Z"
       id="path6" />
    <path
       style="color:#000000;font-style:normal;font-variant:normal;font-weight:normal;font-stretch:normal;font-size:medium;line-height:normal;font-family:sans-serif;text-indent:0;text-align:start;text-decoration:none;text-decoration-line:none;text-decoration-style:solid;text-decoration-color:#000000;letter-spacing:normal;word-spacing:normal;text-transform:none;direction:ltr;block-progression:tb;writing-mode:lr-tb;baseline-shift:baseline;text-anchor:start;white-space:normal;clip-rule:evenodd;display:inline;overflow:visible;visibility:visible;opacity:1;isolation:auto;mix-blend-mode:normal;color-interpolation:sRGB;color-interpolation-filters:linearRGB;solid-color:#000000;solid-opacity:1;fill:#000000;fill-opacity:1;fill-rule:evenodd;stroke:none;stroke-width:1.5;stroke-linecap:butt;stroke-linejoin:miter;stroke-miterlimit:4;stroke-dasharray:none;stroke-dashoffset:0;stroke-opacity:1;color-rendering:auto;image-rendering:auto;shape-rendering:auto;text-rendering:auto;enable-background:accumulate"
       d="m 7.0273438,12.710938 c -1.5540386,-1e-6 -2.8320313,1.272929 -2.8320313,2.826171 0,1.553307 1.2779927,2.826172 2.8320313,2.826172 1.5540385,0 2.8300781,-1.27286 2.8300781,-2.826172 0,-1.553246 -1.2760396,-2.826171 -2.8300781,-2.826171 z m 0,1.5 c 0.7451414,0 1.3300781,0.585418 1.3300781,1.326171 0,0.740889 -0.5849367,1.326172 -1.3300781,1.326172 -0.7451415,0 -1.3320313,-0.585279 -1.3320313,-1.326172 0,-0.740757 0.5868898,-1.326172 1.3320313,-1.326171 z"
       id="path8" />
    <path
       style="color:#000000;font-style:normal;font-variant:normal;font-weight:normal;font-stretch:normal;font-size:medium;line-height:normal;font-family:sans-serif;text-indent:0;text-align:start;text-decoration:none;text-decoration-line:none;text-decoration-style:solid;text-decoration-color:#000000;letter-spacing:normal;word-spacing:normal;text-transform:none;direction:ltr;block-progression:tb;writing-mode:lr-tb;baseline-shift:baseline;text-anchor:start;white-space:normal;clip-rule:evenodd;display:inline;overflow:visible;visibility:visible;opacity:1;isolation:auto;mix-blend-mode:normal;color-interpolation:sRGB;color-interpolation-filters:linearRGB;solid-color:#000000;solid-opacity:1;fill:#000000;fill-opacity:1;fill-rule:evenodd;stroke:none;stroke-width:1.5;stroke-linecap:butt;stroke-linejoin:miter;stroke-miterlimit:4;stroke-dasharray:none;stroke-dashoffset:0;stroke-opacity:1;color-rendering:auto;image-rendering:auto;shape-rendering:auto;text-rendering:auto;enable-background:accumulate"
       d="m 15.353516,12.710938 c -1.554045,-1e-6 -2.832032,1.272938 -2.832032,2.826171 0,1.553299 1.277987,2.826172 2.832032,2.826172 1.554045,0 2.830078,-1.272873 2.830078,-2.826172 0,-1.553233 -1.276033,-2.826171 -2.830078,-2.826171 z m 0,1.5 c 0.745155,0 1.330078,0.585405 1.330078,1.326171 0,0.740902 -0.584923,1.326172 -1.330078,1.326172 -0.745155,0 -1.332032,-0.58527 -1.332032,-1.326172 0,-0.740766 0.586877,-1.326171 1.332032,-1.326171 z"
       id="path10" />
  </g>
</svg>
