<?xml version="1.0" encoding="UTF-8" standalone="no"?>
<svg
   xmlns:dc="http://purl.org/dc/elements/1.1/"
   xmlns:cc="http://creativecommons.org/ns#"
   xmlns:rdf="http://www.w3.org/1999/02/22-rdf-syntax-ns#"
   xmlns:svg="http://www.w3.org/2000/svg"
   xmlns="http://www.w3.org/2000/svg"
   style="fill:none"
   version="1.1"
   id="svg2"
   viewBox="0 0 19.051271 17.001488"
   height="17.001488"
   width="19.051271">
  <metadata
     id="metadata10">
    <rdf:RDF>
      <cc:Work
         rdf:about="">
        <dc:format>image/svg+xml</dc:format>
        <dc:type
           rdf:resource="http://purl.org/dc/dcmitype/StillImage" />
        <dc:title></dc:title>
      </cc:Work>
    </rdf:RDF>
  </metadata>
  <defs
     id="defs8" />
  <path
     id="path4"
     d="M 5.2380591,0.00148787 C 2.7715687,-0.06077933 0.39909189,1.8387535 0.06136059,4.3084154 -0.31021812,6.6689143 1.0649702,8.8485343 2.5893915,10.519852 c 1.8445645,2.071363 4.0513207,3.769129 6.0764195,5.650594 0.2858014,0.277014 0.5716027,0.554028 0.857404,0.831042 1.855287,-1.882902 3.986862,-3.465211 5.847869,-5.343326 C 17.08019,9.9401959 18.862451,7.9378796 19.035347,5.4050882 19.23933,3.0028965 17.458806,0.68529189 15.125013,0.16117303 13.119351,-0.34725618 10.872881,0.37719842 9.523215,1.940941 8.4609668,0.7184952 6.8560319,-0.0018123 5.2380591,0.00148787 Z m 0,2.00000003 C 6.5377687,1.9884943 7.6897119,2.749396 8.4516953,3.7555481 8.8088685,4.165002 9.1660418,4.5744559 9.523215,4.9839098 10.262637,4.1953886 10.87701,3.2724122 11.757759,2.6331251 13.285835,1.5591294 15.772949,1.8514493 16.683175,3.5907129 17.47096,5.0489774 16.862379,6.7943719 15.917274,8.0169114 14.126867,10.388494 11.685982,12.311372 9.521262,14.216341 7.2599602,12.220031 4.8422568,10.333491 3.038417,7.8889356 2.1087694,6.655731 1.5766201,4.8750059 2.4361353,3.4615915 3.0034953,2.4923425 4.140024,1.9834816 5.2380591,2.0014879 Z"
     style="color:#000000;font-style:normal;font-variant:normal;font-weight:normal;font-stretch:normal;font-size:medium;line-height:normal;font-family:sans-serif;text-indent:0;text-align:start;text-decoration:none;text-decoration-line:none;text-decoration-style:solid;text-decoration-color:#000000;letter-spacing:normal;word-spacing:normal;text-transform:none;direction:ltr;block-progression:tb;writing-mode:lr-tb;baseline-shift:baseline;text-anchor:start;white-space:normal;clip-rule:nonzero;display:inline;overflow:visible;visibility:visible;opacity:1;isolation:auto;mix-blend-mode:normal;color-interpolation:sRGB;color-interpolation-filters:linearRGB;solid-color:#000000;solid-opacity:1;fill:#000000;fill-opacity:1;fill-rule:nonzero;stroke:none;stroke-width:2;stroke-linecap:butt;stroke-linejoin:miter;stroke-miterlimit:4;stroke-dasharray:none;stroke-dashoffset:0;stroke-opacity:1;color-rendering:auto;image-rendering:auto;shape-rendering:auto;text-rendering:auto;enable-background:accumulate" />
</svg>
